<svg xmlns="http://www.w3.org/2000/svg" xmlns:xlink="http://www.w3.org/1999/xlink" width="226.029" height="49" viewBox="0 0 226.029 49">
  <defs>
    <linearGradient id="linear-gradient" x1="0.867" y1="0.783" x2="0.027" y2="0.062" gradientUnits="objectBoundingBox">
      <stop offset="0" stop-color="#7c3bff"/>
      <stop offset="1" stop-color="#fff" stop-opacity="0"/>
    </linearGradient>
    <linearGradient id="linear-gradient-2" y1="0.5" x2="1" y2="0.5" gradientUnits="objectBoundingBox">
      <stop offset="0" stop-color="#fff" stop-opacity="0.4"/>
      <stop offset="1" stop-color="#7c3bff"/>
    </linearGradient>
  </defs>
  <g id="Group_1136764" data-name="Group 1136764" transform="translate(-135 -47)">
    <g id="Group_1136665" data-name="Group 1136665" transform="translate(-24 -30)">
      <g id="Group_1104802" data-name="Group 1104802" transform="translate(159 77)">
        <path id="Path_1457069" data-name="Path 1457069" d="M309.363,307.188a5.1,5.1,0,0,0-2.3-3.982l-10.05-5.8c-1.264-.73-2.3-.133-2.3,1.327v11.6a5.1,5.1,0,0,0,2.3,3.982l10.05,5.8c1.264.73,2.3.133,2.3-1.327Z" transform="translate(-294.718 -285.41)" fill="#fff"/>
        <path id="Path_1457071" data-name="Path 1457071" d="M309.676,306.552l-10.05-5.8a1.573,1.573,0,0,0-.756-.24c-.674,0-.747.775-.747,1.108v3.142c0-.333.073-1.108.747-1.108a1.573,1.573,0,0,1,.756.24l10.05,5.8a4.57,4.57,0,0,1,2.034,3.522v-3.142A4.571,4.571,0,0,0,309.676,306.552Z" transform="translate(-297.595 -288.296)" fill="url(#linear-gradient)"/>
        <path id="Path_1457072" data-name="Path 1457072" d="M325.492,236.777a5.1,5.1,0,0,0,4.6,0l10.05-5.8a1.4,1.4,0,0,0,0-2.655l-10.05-5.8a5.1,5.1,0,0,0-4.6,0l-10.05,5.8a1.4,1.4,0,0,0,0,2.655Z" transform="translate(-311.419 -221.97)" fill="#fff"/>
        <path id="Path_1457074" data-name="Path 1457074" d="M318.584,233.4l.906.523,9.056-5.228a4.579,4.579,0,0,1,4.067,0l9.144,5.279.994-.574c.434-.251.684-.567.684-.868s-.249-.617-.684-.868l-10.05-5.8a4.577,4.577,0,0,0-4.067,0l-10.05,5.8c-.434.251-.684.567-.684.868S318.15,233.15,318.584,233.4Z" transform="translate(-314.297 -224.855)" fill="url(#linear-gradient-2)"/>
        <path id="Path_1457075" data-name="Path 1457075" d="M413.4,303.208a5.1,5.1,0,0,0-2.3,3.982v11.6c0,1.46,1.035,2.057,2.3,1.327l10.05-5.8a5.1,5.1,0,0,0,2.3-3.982v-11.6c0-1.46-1.035-2.057-2.3-1.327Z" transform="translate(-393.003 -285.412)" fill="#fff"/>
        <path id="Path_1457077" data-name="Path 1457077" d="M427.35,300.508a1.572,1.572,0,0,0-.756.24l-10.05,5.8a4.57,4.57,0,0,0-2.034,3.522v2.611a4.571,4.571,0,0,1,2.034-3.522l10.05-5.8a1.571,1.571,0,0,1,.756-.24c.674,0,.746.775.746,1.108v-2.611C428.1,301.283,428.023,300.508,427.35,300.508Z" transform="translate(-395.883 -288.294)" fill="url(#linear-gradient-2)"/>
      </g>
      <path id="Path_1457079" data-name="Path 1457079" d="M26.425-87.432a9.187,9.187,0,0,1,3.931,2.5,6.38,6.38,0,0,1,1.584,4.5q0,4.068-2.876,5.887A14.406,14.406,0,0,1,21.3-72.724H10.582v-27.381H20.674a15.187,15.187,0,0,1,5.006.763,7.458,7.458,0,0,1,3.442,2.308,5.984,5.984,0,0,1,1.252,3.892A5.681,5.681,0,0,1,29.318-89.7,7.05,7.05,0,0,1,26.425-87.432Zm-9.231,2.817v6.729h3.4a6.346,6.346,0,0,0,3.208-.743,2.845,2.845,0,0,0,1.291-2.7A2.694,2.694,0,0,0,23.8-83.871a6.346,6.346,0,0,0-3.208-.744Zm0-4.616h2.738a4.045,4.045,0,0,0,2.66-.782,2.65,2.65,0,0,0,.939-2.151,2.429,2.429,0,0,0-.939-2.073,4.363,4.363,0,0,0-2.66-.7H17.193ZM36.007-99.952h5.946v27.228H36.007ZM51.576-81.721a4.4,4.4,0,0,0,1.231,3.286,4.061,4.061,0,0,0,2.954,1.213,4.061,4.061,0,0,0,2.954-1.213,4.4,4.4,0,0,0,1.231-3.286,4.469,4.469,0,0,0-1.231-3.305,4.028,4.028,0,0,0-2.954-1.231,4.028,4.028,0,0,0-2.954,1.231A4.469,4.469,0,0,0,51.576-81.721Zm-6.1,0a9.027,9.027,0,0,1,1.35-4.968A9.024,9.024,0,0,1,50.5-89.955a11.685,11.685,0,0,1,5.261-1.154,11.685,11.685,0,0,1,5.261,1.154A9.024,9.024,0,0,1,64.7-86.688a9.027,9.027,0,0,1,1.35,4.968,9.027,9.027,0,0,1-1.35,4.968,9.024,9.024,0,0,1-3.677,3.266,11.685,11.685,0,0,1-5.261,1.154A11.685,11.685,0,0,1,50.5-73.487a9.024,9.024,0,0,1-3.677-3.266A9.027,9.027,0,0,1,45.474-81.721Zm29.063,0A4.413,4.413,0,0,0,75.925-78.3a4.829,4.829,0,0,0,3.384,1.271,6.887,6.887,0,0,0,3.051-.7,5.45,5.45,0,0,0,2.269-1.995v5.749A7.375,7.375,0,0,1,82.3-72.783a11.382,11.382,0,0,1-3.462.45,11.991,11.991,0,0,1-5.359-1.154,9,9,0,0,1-3.7-3.266,9.027,9.027,0,0,1-1.35-4.968,9.027,9.027,0,0,1,1.35-4.968,9,9,0,0,1,3.7-3.266,11.991,11.991,0,0,1,5.359-1.154,11.382,11.382,0,0,1,3.462.45,8.591,8.591,0,0,1,2.328,1.115v5.789a5.241,5.241,0,0,0-2.347-1.975,7.235,7.235,0,0,0-2.973-.684,4.673,4.673,0,0,0-3.384,1.35A4.476,4.476,0,0,0,74.537-81.721Zm26.482-9h7.08l-7.706,7.432,8.488,10.561h-6.963l-7.432-9.153v9.153H88.814V-99.952h5.672v15.571Zm11.461-6.259h5.711v6.259h3.168v4.89H118.19v13.1h-5.71v-13.1h-3.169v-4.89h3.169Zm17.6,17.211a4.39,4.39,0,0,0,.567,2.425,2.231,2.231,0,0,0,2.015.861,3.067,3.067,0,0,0,2.269-.861,3.279,3.279,0,0,0,.861-2.425V-90.717h5.946v17.993h-5.946v-2.7a5.743,5.743,0,0,1-2.113,2.249,6.314,6.314,0,0,1-3.365.841q-3.325,0-4.869-1.76a7.423,7.423,0,0,1-1.545-5.046V-90.717h6.18Zm27.968-3.912a4.371,4.371,0,0,0-.567-2.445,2.3,2.3,0,0,0-2.054-.841,3.04,3.04,0,0,0-2.249.841,3.312,3.312,0,0,0-.841,2.445v10.952h-5.946V-90.717h5.946v2.7a6.089,6.089,0,0,1,2.132-2.249,6.211,6.211,0,0,1,3.345-.841q3.365,0,4.89,1.76A7.484,7.484,0,0,1,164.23-84.3v11.578H158.05Zm10.992-7.041h5.75v17.993h-5.751Zm-.547-5.908a2.968,2.968,0,0,1,1-2.308,3.518,3.518,0,0,1,2.445-.9,3.518,3.518,0,0,1,2.445.9,2.968,2.968,0,0,1,1,2.308,2.968,2.968,0,0,1-1,2.308,3.518,3.518,0,0,1-2.445.9,3.518,3.518,0,0,1-2.445-.9,2.968,2.968,0,0,1-1-2.307Zm22.687,5.908h6.572l-6.886,8.762,7.276,9.231h-6.572l-3.716-5.242-3.716,5.242h-6.806l7.393-9.231-7-8.762h6.806l3.325,4.694Z" transform="translate(186.886 180.503)" fill="#5e33b4"/>
      <path id="Path_1457080" data-name="Path 1457080" d="M26.425-87.432a9.187,9.187,0,0,1,3.931,2.5,6.38,6.38,0,0,1,1.584,4.5q0,4.068-2.876,5.887A14.406,14.406,0,0,1,21.3-72.724H10.582v-27.381H20.674a15.187,15.187,0,0,1,5.006.763,7.458,7.458,0,0,1,3.442,2.308,5.984,5.984,0,0,1,1.252,3.892A5.681,5.681,0,0,1,29.318-89.7,7.05,7.05,0,0,1,26.425-87.432Zm-9.231,2.817v6.729h3.4a6.346,6.346,0,0,0,3.208-.743,2.845,2.845,0,0,0,1.291-2.7A2.694,2.694,0,0,0,23.8-83.871a6.346,6.346,0,0,0-3.208-.744Zm0-4.616h2.738a4.045,4.045,0,0,0,2.66-.782,2.65,2.65,0,0,0,.939-2.151,2.429,2.429,0,0,0-.939-2.073,4.363,4.363,0,0,0-2.66-.7H17.193ZM36.007-99.952h5.946v27.228H36.007ZM51.576-81.721a4.4,4.4,0,0,0,1.231,3.286,4.061,4.061,0,0,0,2.954,1.213,4.061,4.061,0,0,0,2.954-1.213,4.4,4.4,0,0,0,1.231-3.286,4.469,4.469,0,0,0-1.231-3.305,4.028,4.028,0,0,0-2.954-1.231,4.028,4.028,0,0,0-2.954,1.231A4.469,4.469,0,0,0,51.576-81.721Zm-6.1,0a9.027,9.027,0,0,1,1.35-4.968A9.024,9.024,0,0,1,50.5-89.955a11.685,11.685,0,0,1,5.261-1.154,11.685,11.685,0,0,1,5.261,1.154A9.024,9.024,0,0,1,64.7-86.688a9.027,9.027,0,0,1,1.35,4.968,9.027,9.027,0,0,1-1.35,4.968,9.024,9.024,0,0,1-3.677,3.266,11.685,11.685,0,0,1-5.261,1.154A11.685,11.685,0,0,1,50.5-73.487a9.024,9.024,0,0,1-3.677-3.266A9.027,9.027,0,0,1,45.474-81.721Zm29.063,0A4.413,4.413,0,0,0,75.925-78.3a4.829,4.829,0,0,0,3.384,1.271,6.887,6.887,0,0,0,3.051-.7,5.45,5.45,0,0,0,2.269-1.995v5.749A7.375,7.375,0,0,1,82.3-72.783a11.382,11.382,0,0,1-3.462.45,11.991,11.991,0,0,1-5.359-1.154,9,9,0,0,1-3.7-3.266,9.027,9.027,0,0,1-1.35-4.968,9.027,9.027,0,0,1,1.35-4.968,9,9,0,0,1,3.7-3.266,11.991,11.991,0,0,1,5.359-1.154,11.382,11.382,0,0,1,3.462.45,8.591,8.591,0,0,1,2.328,1.115v5.789a5.241,5.241,0,0,0-2.347-1.975,7.235,7.235,0,0,0-2.973-.684,4.673,4.673,0,0,0-3.384,1.35A4.476,4.476,0,0,0,74.537-81.721Zm26.482-9h7.08l-7.706,7.432,8.488,10.561h-6.963l-7.432-9.153v9.153H88.814V-99.952h5.672v15.571Zm11.461-6.259h5.711v6.259h3.168v4.89H118.19v13.1h-5.71v-13.1h-3.169v-4.89h3.169Zm17.6,17.211a4.39,4.39,0,0,0,.567,2.425,2.231,2.231,0,0,0,2.015.861,3.067,3.067,0,0,0,2.269-.861,3.279,3.279,0,0,0,.861-2.425V-90.717h5.946v17.993h-5.946v-2.7a5.743,5.743,0,0,1-2.113,2.249,6.314,6.314,0,0,1-3.365.841q-3.325,0-4.869-1.76a7.423,7.423,0,0,1-1.545-5.046V-90.717h6.18Zm27.968-3.912a4.371,4.371,0,0,0-.567-2.445,2.3,2.3,0,0,0-2.054-.841,3.04,3.04,0,0,0-2.249.841,3.312,3.312,0,0,0-.841,2.445v10.952h-5.946V-90.717h5.946v2.7a6.089,6.089,0,0,1,2.132-2.249,6.211,6.211,0,0,1,3.345-.841q3.365,0,4.89,1.76A7.484,7.484,0,0,1,164.23-84.3v11.578H158.05Zm10.992-7.041h5.75v17.993h-5.751Zm-.547-5.908a2.968,2.968,0,0,1,1-2.308,3.518,3.518,0,0,1,2.445-.9,3.518,3.518,0,0,1,2.445.9,2.968,2.968,0,0,1,1,2.308,2.968,2.968,0,0,1-1,2.308,3.518,3.518,0,0,1-2.445.9,3.518,3.518,0,0,1-2.445-.9,2.968,2.968,0,0,1-1-2.307Zm22.687,5.908h6.572l-6.886,8.762,7.276,9.231h-6.572l-3.716-5.242-3.716,5.242h-6.806l7.393-9.231-7-8.762h6.806l3.325,4.694Z" transform="translate(186.886 180.503)" fill="#fff"/>
    </g>
    <text id="Wallet" transform="translate(324 94)" fill="#fff" font-size="9" font-family="JosefinSans-Regular, Josefin Sans"><tspan x="0" y="0">WALLET</tspan></text>
  </g>
</svg>
