<svg xmlns="http://www.w3.org/2000/svg" xmlns:xlink="http://www.w3.org/1999/xlink" width="1440" height="770.357" viewBox="0 0 1440 770.357">
  <defs>
    <clipPath id="clip-path">
      <rect id="Rectangle_176058" data-name="Rectangle 176058" width="9.025" height="14.711" fill="none"/>
    </clipPath>
    <clipPath id="clip-path-2">
      <rect id="Rectangle_176059" data-name="Rectangle 176059" width="9.032" height="12.495" fill="none"/>
    </clipPath>
    <clipPath id="clip-path-3">
      <rect id="Rectangle_176060" data-name="Rectangle 176060" width="9.025" height="9.271" fill="none"/>
    </clipPath>
    <clipPath id="clip-path-4">
      <rect id="Rectangle_176061" data-name="Rectangle 176061" width="9.026" height="9.271" fill="none"/>
    </clipPath>
  </defs>
  <g id="Group_1136762" data-name="Group 1136762" transform="translate(-4705 2477)">
    <g id="Group_1136761" data-name="Group 1136761" transform="translate(4705 -2477)">
      <path id="Path_1566506" data-name="Path 1566506" d="M663,189V809.51s648.6,337.155,1440,0V189Z" transform="translate(-663 -189)" fill="#7035e5"/>
    </g>
    <g id="Group_1136760" data-name="Group 1136760" transform="translate(2600.011 -2730)">
      <g id="Group_1136666" data-name="Group 1136666" transform="translate(2256.063 667.403)" style="isolation: isolate">
        <path id="Path_1524701" data-name="Path 1524701" d="M138.343,4.1a19.262,19.262,0,1,1-19.262,19.262A19.261,19.261,0,0,1,138.343,4.1" transform="translate(972.855 -113.166)" fill="#627eea" fill-rule="evenodd"/>
        <g id="Group_1103078" data-name="Group 1103078" transform="translate(1111.798 -104.254)" opacity="0.602">
          <g id="Group_1103077" data-name="Group 1103077" transform="translate(0)">
            <g id="Group_1103076" data-name="Group 1103076" clip-path="url(#clip-path)">
              <path id="Path_1524702" data-name="Path 1524702" d="M157.048,13.3V23.981l9.025,4.033Z" transform="translate(-157.048 -13.302)" fill="#fff"/>
            </g>
          </g>
        </g>
        <path id="Path_1524703" data-name="Path 1524703" d="M148.82,13.3l-9.026,14.711,9.026-4.033Z" transform="translate(962.978 -117.556)" fill="#fff"/>
        <g id="Group_1103081" data-name="Group 1103081" transform="translate(1111.798 -87.862)" opacity="0.602">
          <g id="Group_1103080" data-name="Group 1103080" transform="translate(0)">
            <g id="Group_1103079" data-name="Group 1103079" clip-path="url(#clip-path-2)">
              <path id="Path_1524704" data-name="Path 1524704" d="M157.048,49.876v7.256l9.031-12.495Z" transform="translate(-157.048 -44.637)" fill="#fff"/>
            </g>
          </g>
        </g>
        <path id="Path_1524705" data-name="Path 1524705" d="M148.82,57.132V49.875l-9.026-5.238Z" transform="translate(962.978 -132.499)" fill="#fff"/>
        <g id="Group_1103084" data-name="Group 1103084" transform="translate(1111.798 -93.573)" opacity="0.2">
          <g id="Group_1103083" data-name="Group 1103083" transform="translate(0 0)">
            <g id="Group_1103082" data-name="Group 1103082" clip-path="url(#clip-path-3)">
              <path id="Path_1524706" data-name="Path 1524706" d="M157.048,42.991l9.025-5.241-9.025-4.03Z" transform="translate(-157.048 -33.72)" fill="#fff"/>
            </g>
          </g>
        </g>
        <g id="Group_1103087" data-name="Group 1103087" transform="translate(1102.771 -93.573)" opacity="0.602">
          <g id="Group_1103086" data-name="Group 1103086" transform="translate(0 0)">
            <g id="Group_1103085" data-name="Group 1103085" clip-path="url(#clip-path-4)">
              <path id="Path_1524707" data-name="Path 1524707" d="M139.793,37.75l9.026,5.241V33.719Z" transform="translate(-139.793 -33.72)" fill="#fff"/>
            </g>
          </g>
        </g>
      </g>
      <g id="Group_1136667" data-name="Group 1136667" transform="translate(1783.179 1017.302)" style="isolation: isolate">
        <path id="Path_1524709" data-name="Path 1524709" d="M48.736,30.432A21.2,21.2,0,1,1,33.3,4.732a21.2,21.2,0,0,1,15.441,25.7Z" transform="translate(972.855 -113.166)" fill="#f7931a"/>
        <path id="Path_1524710" data-name="Path 1524710" d="M45.116,27.723c.422-2.822-1.727-4.339-4.664-5.351L41.4,18.55l-2.327-.58-.928,3.722c-.61-.153-1.239-.3-1.863-.439l.934-3.746-2.325-.58-.953,3.821c-.506-.115-1-.229-1.486-.349l0-.012-3.209-.8-.619,2.485s1.727.4,1.69.42a1.237,1.237,0,0,1,1.084,1.353l-1.088,4.371-1.523,6.1a.847.847,0,0,1-1.066.553c.023.034-1.691-.422-1.691-.422l-1.155,2.664,3.029.754c.563.141,1.115.289,1.657.428l-.962,3.867,2.324.58.954-3.824c.634.172,1.25.331,1.853.481l-.95,3.807,2.327.579.963-3.858c3.967.751,6.951.448,8.206-3.14,1.011-2.889-.05-4.555-2.137-5.643a3.713,3.713,0,0,0,2.97-3.417ZM39.8,35.176c-.719,2.889-5.583,1.328-7.161.936l1.278-5.122c1.577.394,6.634,1.173,5.884,4.186Zm.719-7.5c-.656,2.628-4.705,1.293-6.019.966L35.658,24c1.314.327,5.544.938,4.861,3.679" transform="translate(965.257 -118.608)" fill="#fff"/>
      </g>
      <g id="Group_1136668" data-name="Group 1136668" transform="translate(1861.427 510.534)" style="isolation: isolate">
        <path id="Path_1524733" data-name="Path 1524733" d="M363.717,4.1a20.4,20.4,0,1,1-20.4,20.4,20.4,20.4,0,0,1,20.4-20.4" transform="translate(972.855 -113.166)" fill="#53ae94"/>
        <path id="Path_1524734" data-name="Path 1524734" d="M372.692,29.846V26.812h6.938V22.189H360.737v4.623h6.939v3.032c-5.64.259-9.88,1.376-9.88,2.714s4.242,2.455,9.88,2.715v9.719h5.017v-9.72c5.63-.26,9.861-1.376,9.861-2.713s-4.231-2.453-9.861-2.713m0,4.6v0c-.141.009-.869.053-2.488.053-1.295,0-2.206-.037-2.526-.053v0c-4.983-.22-8.7-1.088-8.7-2.126s3.72-1.9,8.7-2.126v3.388c.326.023,1.26.078,2.548.078,1.547,0,2.325-.064,2.468-.078V30.2c4.973.222,8.683,1.09,8.683,2.124s-3.712,1.9-8.683,2.125" transform="translate(966.398 -121.237)" fill="#fff"/>
      </g>
      <g id="Group_1136669" data-name="Group 1136669" transform="translate(1741.463 912.22)" style="isolation: isolate">
        <path id="Path_1524757" data-name="Path 1524757" d="M721.745,25.128A21.031,21.031,0,1,1,700.713,4.1a21.031,21.031,0,0,1,21.031,21.031" transform="translate(972.855 -113.166)" fill="#e84142" fill-rule="evenodd"/>
        <path id="Path_1524758" data-name="Path 1524758" d="M701.495,39.4h-4.082a3.277,3.277,0,0,1-1.539-.165,1.039,1.039,0,0,1-.471-.812c-.015-.3.2-.677.62-1.421L706.1,19.235c.429-.755.646-1.132.92-1.271a1.037,1.037,0,0,1,.94,0c.274.139.491.516.92,1.271l2.072,3.617.01.018a6.794,6.794,0,0,1,.8,1.65,3.067,3.067,0,0,1,0,1.437,6.816,6.816,0,0,1-.806,1.669l-5.294,9.358-.014.024a6.711,6.711,0,0,1-1.03,1.541,3.069,3.069,0,0,1-1.255.729,7.378,7.378,0,0,1-1.87.119" transform="translate(966.114 -119.065)" fill="#fff" fill-rule="evenodd"/>
        <path id="Path_1524759" data-name="Path 1524759" d="M722.6,48.982h5.848a3.253,3.253,0,0,0,1.555-.17,1.035,1.035,0,0,0,.471-.816c.015-.3-.193-.653-.6-1.353l-.042-.073-2.93-5.011-.034-.057c-.411-.7-.619-1.048-.886-1.183a1.03,1.03,0,0,0-.935,0c-.269.139-.486.506-.914,1.245l-2.919,5.011-.01.017c-.427.738-.641,1.106-.625,1.409a1.047,1.047,0,0,0,.47.817,3.309,3.309,0,0,0,1.55.165" transform="translate(955.319 -128.651)" fill="#fff" fill-rule="evenodd"/>
      </g>
      <g id="Group_1136674" data-name="Group 1136674" transform="translate(2024 641.409)" style="isolation: isolate">
        <path id="Path_1566508" data-name="Path 1566508" d="M24.7,103.6a17.74,17.74,0,1,1-17.74,17.74A17.739,17.739,0,0,1,24.7,103.6" transform="translate(465.855 48.996)" fill="#f0b90b"/>
        <path id="Path_1566509" data-name="Path 1566509" d="M31.4,125.79l2.686-2.677.567-.566,1.342-1.342,4.571,4.586,2.661-2.677-7.232-7.244-7.256,7.244Z" transform="translate(454.573 42.636)" fill="#fff"/>
        <rect id="Rectangle_177417" data-name="Rectangle 177417" width="3.779" height="3.779" transform="matrix(0.707, -0.707, 0.707, 0.707, 487.896, 170.326)" fill="#fff"/>
        <path id="Path_1566510" data-name="Path 1566510" d="M40.562,144.384l-4.573,4.573-1.605-1.606-.3-.3L31.4,144.384l-2.661,2.661,7.255,7.244,7.232-7.244Z" transform="translate(454.573 27.859)" fill="#fff"/>
        <rect id="Rectangle_177416" data-name="Rectangle 177416" width="3.779" height="3.779" transform="matrix(0.707, -0.707, 0.707, 0.707, 478.734, 170.334)" fill="#fff"/>
        <rect id="Rectangle_177418" data-name="Rectangle 177418" width="3.779" height="3.779" transform="matrix(0.707, -0.707, 0.707, 0.707, 495.124, 170.326)" fill="#fff"/>
      </g>
      <g id="Group_1136672" data-name="Group 1136672" transform="translate(2151.549 393.027)" style="isolation: isolate">
        <path id="Path_1524767" data-name="Path 1524767" d="M373.868,118.867A15.272,15.272,0,1,1,358.6,103.6a15.272,15.272,0,0,1,15.272,15.272" transform="translate(972.855 -113.166)" fill="#e6007a"/>
        <path id="Path_1524768" data-name="Path 1524768" d="M373.941,111.024c2.428,0,4.4,1.145,4.4,2.557s-1.968,2.557-4.4,2.557-4.4-1.145-4.4-2.557,1.968-2.557,4.4-2.557" transform="translate(957.511 -117.514)" fill="#fff"/>
        <path id="Path_1524769" data-name="Path 1524769" d="M373.941,157.478c2.428,0,4.4,1.145,4.4,2.557s-1.968,2.557-4.4,2.557-4.4-1.145-4.4-2.557,1.968-2.557,4.4-2.557" transform="translate(957.511 -144.701)" fill="#fff"/>
        <path id="Path_1524770" data-name="Path 1524770" d="M353.409,121.855c1.214-2.1,3.19-3.235,4.414-2.528s1.232,2.984.017,5.087-3.19,3.235-4.414,2.528-1.231-2.984-.017-5.087" transform="translate(967.483 -122.25)" fill="#fff"/>
        <path id="Path_1524771" data-name="Path 1524771" d="M393.642,145.083c1.214-2.1,3.19-3.235,4.413-2.529s1.23,2.983.016,5.086-3.19,3.235-4.413,2.529-1.23-2.983-.016-5.086" transform="translate(943.938 -135.844)" fill="#fff"/>
        <path id="Path_1524772" data-name="Path 1524772" d="M353.428,142.552c1.224-.707,3.2.425,4.414,2.528s1.206,4.38-.018,5.087-3.2-.425-4.414-2.528-1.207-4.38.017-5.087" transform="translate(967.482 -135.842)" fill="#fff"/>
        <path id="Path_1524773" data-name="Path 1524773" d="M393.661,119.329c1.223-.706,3.2.426,4.413,2.529s1.207,4.38-.016,5.086-3.2-.426-4.413-2.529-1.207-4.38.016-5.086" transform="translate(943.936 -122.252)" fill="#fff"/>
      </g>
      <g id="Group_1136673" data-name="Group 1136673" transform="translate(2073.982 242.696)" style="isolation: isolate">
        <path id="Path_1566511" data-name="Path 1566511" d="M479.452,103.6A24.009,24.009,0,1,0,503.461,127.6,24.009,24.009,0,0,0,479.452,103.6" transform="translate(264.557 247.565)" fill="#c2a633"/>
        <path id="Path_1566512" data-name="Path 1566512" d="M486.2,120.5h-7.463v11.56h-3.065v2.832h3.065v11.559h8.695s12.225,1.024,12.225-12.758c0-13.559-11.693-13.193-13.458-13.193m1.033,21.154h-3.6v-6.762h5.4v-2.832h-5.4V125.3h3.43c1.283,0,7.738.516,7.749,8.489s-6.656,7.868-7.581,7.868" transform="translate(256.061 241.744)" fill="#fff"/>
      </g>
      <g id="Group_1136670" data-name="Group 1136670" transform="translate(2651 383.813)" style="isolation: isolate">
        <path id="Path_1524721" data-name="Path 1524721" d="M35.3,17.651a17.6,17.6,0,1,1-1.387-6.871A17.6,17.6,0,0,1,35.3,17.651" fill="#3cc8c8"/>
        <path id="Path_1524722" data-name="Path 1524722" d="M13.413.075a.658.658,0,0,1,.456-.058.824.824,0,0,1,.395.222.815.815,0,0,1,.222.393.65.65,0,0,1-.06.455.675.675,0,0,1-.222.3.8.8,0,0,1-.335.149A.815.815,0,0,1,13.5,1.52a.694.694,0,0,1-.319-.187.7.7,0,0,1-.193-.32.819.819,0,0,1-.017-.37A.807.807,0,0,1,13.118.3a.685.685,0,0,1,.3-.228M6.967.77A.506.506,0,0,1,7.248.742a.643.643,0,0,1,.45.33.5.5,0,0,1,.056.279.5.5,0,0,1-.066.3.614.614,0,0,1-.21.215.641.641,0,0,1-.287.1.526.526,0,0,1-.3-.062.509.509,0,0,1-.268-.237.642.642,0,0,1-.071-.346A.656.656,0,0,1,6.672.976.522.522,0,0,1,6.967.77m13.2,1.136a.505.505,0,0,1-.334-.182.668.668,0,0,1-.071-.716.507.507,0,0,1,.294-.245A.527.527,0,0,1,20.366.71a.568.568,0,0,1,.267.116.787.787,0,0,1,.2.23.842.842,0,0,1,.1.29.943.943,0,0,1-.1.246.774.774,0,0,1-.168.2.569.569,0,0,1-.224.116.545.545,0,0,1-.271,0M8.433,3.514a.8.8,0,0,1,.486-.122.982.982,0,0,1,.469.16,1,1,0,0,1,.337.365.816.816,0,0,1,.091.492.823.823,0,0,1-.175.47,1,1,0,0,1-.394.3.977.977,0,0,1-.488.077.806.806,0,0,1-.458-.2.827.827,0,0,1-.278-.36.963.963,0,0,1-.064-.443A.974.974,0,0,1,8.1,3.824a.843.843,0,0,1,.334-.31m9.293.408a.8.8,0,0,1,.334-.4.986.986,0,0,1,.493-.141,1,1,0,0,1,.5.118.815.815,0,0,1,.355.38.809.809,0,0,1,.11.412.93.93,0,0,1-.1.4,1.1,1.1,0,0,1-.257.337,1.059,1.059,0,0,1-.369.215.925.925,0,0,1-.519-.055,1.054,1.054,0,0,1-.412-.3.966.966,0,0,1-.213-.456.834.834,0,0,1,.078-.514M12.637,5.21a.961.961,0,0,1,.091-.418,1.092,1.092,0,0,1,.249-.337,1.289,1.289,0,0,1,.773-.335,2.346,2.346,0,0,1,.286.075,1.536,1.536,0,0,1,.273.12,1.025,1.025,0,0,1,.232.178.813.813,0,0,1,.165.248.96.96,0,0,1,.125.422,1.108,1.108,0,0,1-.063.433,1.155,1.155,0,0,1-.222.379,1.029,1.029,0,0,1-.354.262.7.7,0,0,1-.2.073,1.057,1.057,0,0,1-.206.022c-.07,0-.14,0-.21-.008l-.208-.015a1.555,1.555,0,0,1-.3-.189,1.346,1.346,0,0,1-.241-.252,1.077,1.077,0,0,1-.157-.306.946.946,0,0,1-.043-.35m-9.587.877A.651.651,0,0,1,3.485,6a.813.813,0,0,1,.4.179.827.827,0,0,1,.256.356.654.654,0,0,1,0,.441.668.668,0,0,1-.183.33.8.8,0,0,1-.32.192.827.827,0,0,1-.373.031.7.7,0,0,1-.344-.151.674.674,0,0,1-.23-.3.834.834,0,0,1,.07-.735.667.667,0,0,1,.284-.251m20.587,0a.655.655,0,0,1,.393-.137.831.831,0,0,1,.7.382.646.646,0,0,1,.1.4.65.65,0,0,1-.094.374.822.822,0,0,1-.64.389.65.65,0,0,1-.375-.089.68.68,0,0,1-.3-.262.819.819,0,0,1-.049-.76.682.682,0,0,1,.264-.3m-8.3,1.081a1.706,1.706,0,0,1,.6-.1,1.881,1.881,0,0,1,.6.108,1.923,1.923,0,0,1,.535.291,1.784,1.784,0,0,1,.413.449,1.689,1.689,0,0,1,.276.7,1.952,1.952,0,0,1-.345,1.431,1.877,1.877,0,0,1-1.329.737,1.942,1.942,0,0,1-.79-.112,1.92,1.92,0,0,1-.679-.417,1.654,1.654,0,0,1-.43-.675,1.654,1.654,0,0,1-.123-.733,1.9,1.9,0,0,1,.187-.716,1.933,1.933,0,0,1,.442-.6,1.7,1.7,0,0,1,.645-.369m-4.568.093a1.815,1.815,0,0,1,.687-.168,1.984,1.984,0,0,1,.7.093,1.861,1.861,0,0,1,.617.335,1.621,1.621,0,0,1,.436.557,1.662,1.662,0,0,1,.211.69,1.9,1.9,0,0,1-.081.715,1.929,1.929,0,0,1-.337.637,1.878,1.878,0,0,1-1.266.671A1.937,1.937,0,0,1,11,10.707a1.9,1.9,0,0,1-.648-.349A1.665,1.665,0,0,1,9.9,9.774a1.7,1.7,0,0,1-.2-.711A1.944,1.944,0,0,1,10.175,7.7a1.71,1.71,0,0,1,.59-.441M6.191,8.823a.96.96,0,0,1,.128-.378,1.087,1.087,0,0,1,.258-.293,1.294,1.294,0,0,1,.345-.2,1.355,1.355,0,0,1,.389-.087,1.263,1.263,0,0,1,.4.118,1.244,1.244,0,0,1,.333.236,1.214,1.214,0,0,1,.353.735,1.3,1.3,0,0,1-.329.779,1.089,1.089,0,0,1-.335.253.953.953,0,0,1-.419.094A.968.968,0,0,1,6.84,10a1.119,1.119,0,0,1-.385-.282A1.133,1.133,0,0,1,6.22,9.3a.988.988,0,0,1-.028-.481M19.7,7.989a.96.96,0,0,1,.543-.127,1.176,1.176,0,0,1,.918.556,1.125,1.125,0,0,1-.006,1.1,1.181,1.181,0,0,1-.98.543.951.951,0,0,1-.557-.178.966.966,0,0,1-.389-.419,1.174,1.174,0,0,1,.049-1.093.975.975,0,0,1,.422-.385M8.906,10.922a1.783,1.783,0,0,1,.611-.057,1.924,1.924,0,0,1,.595.145,1.891,1.891,0,0,1,.518.324,1.881,1.881,0,0,1,.593,1.077,1.908,1.908,0,0,1-.006.632,1.885,1.885,0,0,1-.211.6,1.694,1.694,0,0,1-.406.486,1.646,1.646,0,0,1-.748.393A1.963,1.963,0,0,1,9,14.525a1.937,1.937,0,0,1-.771-.345,1.618,1.618,0,0,1-.523-.665,1.647,1.647,0,0,1-.186-.788,1.91,1.91,0,0,1,.182-.783,1.952,1.952,0,0,1,.483-.645,1.7,1.7,0,0,1,.718-.376m8.664,0a1.908,1.908,0,0,1,.6-.07,1.982,1.982,0,0,1,.59.115,1.845,1.845,0,0,1,.523.289,1.646,1.646,0,0,1,.4.453,1.675,1.675,0,0,1,.265.665,1.9,1.9,0,0,1-.017.713,1.924,1.924,0,0,1-.274.659,1.869,1.869,0,0,1-1.222.789,1.946,1.946,0,0,1-.766-.033,1.919,1.919,0,0,1-.694-.324,1.894,1.894,0,0,1-.721-1.376,1.964,1.964,0,0,1,.608-1.473,1.691,1.691,0,0,1,.713-.4m-13.806.924a.821.821,0,0,1,.514-.021,1,1,0,0,1,.438.259.98.98,0,0,1,.256.437.8.8,0,0,1-.031.511.81.81,0,0,1-.243.389.99.99,0,0,1-.858.225.808.808,0,0,1-.4-.22.813.813,0,0,1-.266-.4,1.006,1.006,0,0,1,.189-.912.817.817,0,0,1,.406-.265m18.721.994a1.11,1.11,0,0,1,.063-.411,1.083,1.083,0,0,1,.2-.348,1.019,1.019,0,0,1,.72-.353,1.2,1.2,0,0,1,.345.111,1.132,1.132,0,0,1,.294.21.9.9,0,0,1,.2.292.781.781,0,0,1,.058.358.793.793,0,0,1-.112.46.945.945,0,0,1-.332.326,1,1,0,0,1-.449.138.851.851,0,0,1-.462-.1.783.783,0,0,1-.18-.128,1.027,1.027,0,0,1-.141-.166,1.641,1.641,0,0,1-.112-.19c-.033-.066-.064-.133-.092-.2M.368,12.178a.58.58,0,0,1,.319-.042.647.647,0,0,1,.29.12.6.6,0,0,1,.194.241.53.53,0,0,1,.032.32.5.5,0,0,1-.138.327.638.638,0,0,1-.3.176.648.648,0,0,1-.352,0A.512.512,0,0,1,.125,13.1a.539.539,0,0,1-.116-.251.6.6,0,0,1,.015-.268.657.657,0,0,1,.126-.24.614.614,0,0,1,.218-.168m26.2-.011a.52.52,0,0,1,.244-.092.635.635,0,0,1,.489.157.519.519,0,0,1,.145.218.492.492,0,0,1,.051.295.64.64,0,0,1-.339.478.494.494,0,0,1-.3.049.474.474,0,0,1-.363-.113.616.616,0,0,1-.187-.321.686.686,0,0,1,.014-.38.509.509,0,0,1,.242-.29m-15.4,2.508a1.68,1.68,0,0,1,.816,0,1.966,1.966,0,0,1,1.255.969,1.859,1.859,0,0,1,.048,1.6,1.954,1.954,0,0,1-.5.656,1.923,1.923,0,0,1-.722.393,1.639,1.639,0,0,1-.827.024,1.7,1.7,0,0,1-.606-.225,1.923,1.923,0,0,1-.807-.985,1.867,1.867,0,0,1,.006-1.245,1.925,1.925,0,0,1,.765-.946,1.756,1.756,0,0,1,.571-.237m4.33,0a1.683,1.683,0,0,1,.83-.016,1.956,1.956,0,0,1,1.276.98,1.9,1.9,0,0,1,.038,1.6,1.962,1.962,0,0,1-1.192,1.034,1.657,1.657,0,0,1-.808.042,1.673,1.673,0,0,1-.711-.27,1.934,1.934,0,0,1-.536-.538,1.909,1.909,0,0,1-.289-.7,1.636,1.636,0,0,1,.031-.758,1.7,1.7,0,0,1,.181-.473,1.861,1.861,0,0,1,.307-.4,1.926,1.926,0,0,1,.4-.308,1.839,1.839,0,0,1,.47-.19m-8.349.693a.975.975,0,0,1,.552.07,1.178,1.178,0,0,1,.441.335,1.137,1.137,0,0,1,.239.5.934.934,0,0,1-.056.553A.951.951,0,0,1,8,17.293a1.173,1.173,0,0,1-1.073.2,1.134,1.134,0,0,1-.727-.85,1.143,1.143,0,0,1,.067-.573,1.173,1.173,0,0,1,.333-.475.984.984,0,0,1,.539-.232m12.7.034a.971.971,0,0,1,.526-.062,1.162,1.162,0,0,1,.835.593A1.143,1.143,0,0,1,21.159,17a1.181,1.181,0,0,1-.974.526,1.128,1.128,0,0,1-.953-.624,1.19,1.19,0,0,1,.123-1.148.957.957,0,0,1,.488-.356m3.549,3.56a.646.646,0,0,1-.07-.391.8.8,0,0,1,.148-.366.809.809,0,0,1,.3-.255.656.656,0,0,1,.393-.058.514.514,0,0,1,.193.034.713.713,0,0,1,.168.093,1.407,1.407,0,0,1,.149.129c.047.046.092.094.137.14.009.074.02.152.027.23a1.476,1.476,0,0,1,0,.234.724.724,0,0,1-.048.222.529.529,0,0,1-.132.192.662.662,0,0,1-.314.218.817.817,0,0,1-.729-.117.655.655,0,0,1-.228-.3M3.047,18.03a.661.661,0,0,1,.415-.11.806.806,0,0,1,.4.141.823.823,0,0,1,.279.319.677.677,0,0,1,.057.426.694.694,0,0,1-.149.353.826.826,0,0,1-.67.3.7.7,0,0,1-.364-.12.671.671,0,0,1-.266-.286.829.829,0,0,1,.019-.755.67.67,0,0,1,.281-.273m10.247,1.123a.961.961,0,0,1,.527-.069,1.152,1.152,0,0,1,.492.2,1.125,1.125,0,0,1,.352.392,1.2,1.2,0,0,1-.04,1.079,1.177,1.177,0,0,1-.985.528.935.935,0,0,1-.55-.185.945.945,0,0,1-.394-.446,1.173,1.173,0,0,1-.087-.586,1.161,1.161,0,0,1,.2-.555.938.938,0,0,1,.481-.354M8.548,20.259A.786.786,0,0,1,9,20.176a.971.971,0,0,1,.433.161.984.984,0,0,1,.314.34.8.8,0,0,1,.1.451.821.821,0,0,1-.079.377.939.939,0,0,1-.23.3.95.95,0,0,1-.332.19.838.838,0,0,1-.384.034.71.71,0,0,1-.3-.072.881.881,0,0,1-.242-.177A1.293,1.293,0,0,1,8.1,21.54a1.728,1.728,0,0,1-.132-.275A1.511,1.511,0,0,1,8,20.959a1.235,1.235,0,0,1,.1-.291.912.912,0,0,1,.179-.244.762.762,0,0,1,.262-.165m9.613.01a.812.812,0,0,1,.475-.119.981.981,0,0,1,.461.148.991.991,0,0,1,.339.347.821.821,0,0,1,.109.477.808.808,0,0,1-.149.483.992.992,0,0,1-.384.322.98.98,0,0,1-.491.1.8.8,0,0,1-.469-.191.832.832,0,0,1-.291-.36.994.994,0,0,1,.063-.887.839.839,0,0,1,.338-.317M19.833,24.4a.567.567,0,0,1-.1-.308.6.6,0,0,1,.076-.295.738.738,0,0,1,.206-.237.747.747,0,0,1,.293-.134,1.051,1.051,0,0,1,.255.087.852.852,0,0,1,.22.154.582.582,0,0,1,.142.216.521.521,0,0,1,.021.273.528.528,0,0,1-.157.332.644.644,0,0,1-.317.167.653.653,0,0,1-.359-.022.533.533,0,0,1-.282-.234m-13.27-.348a1.129,1.129,0,0,1,.107-.231.836.836,0,0,1,.16-.194.558.558,0,0,1,.21-.119A.51.51,0,0,1,7.3,23.5a.507.507,0,0,1,.333.154.642.642,0,0,1,.165.321.654.654,0,0,1-.026.361.514.514,0,0,1-.242.275.544.544,0,0,1-.326.1.588.588,0,0,1-.3-.1.756.756,0,0,1-.229-.24.739.739,0,0,1-.106-.32m6.4.364a.65.65,0,0,1,.162-.3.777.777,0,0,1,.284-.19.81.81,0,0,1,.339-.056.69.69,0,0,1,.328.1.5.5,0,0,1,.166.116.68.68,0,0,1,.113.163,1.289,1.289,0,0,1,.076.189c.021.065.039.131.056.193l-.027.1-.025.1-.025.1-.024.1a1.9,1.9,0,0,1-.132.142,1.111,1.111,0,0,1-.151.124.716.716,0,0,1-.171.086.561.561,0,0,1-.193.029.66.66,0,0,1-.361-.063.814.814,0,0,1-.287-.231.792.792,0,0,1-.156-.331.632.632,0,0,1,.031-.363" transform="translate(3.901 4.946)" fill="#fff"/>
      </g>
    </g>
  </g>
</svg>
